<?xml version="1.0" standalone="no"?>
<!DOCTYPE svg PUBLIC "-//W3C//DTD SVG 20010904//EN"
 "http://www.w3.org/TR/2001/REC-SVG-20010904/DTD/svg10.dtd">
<svg version="1.0" xmlns="http://www.w3.org/2000/svg"
 width="1023.000000pt" height="1023.000000pt" viewBox="0 0 1023.000000 1023.000000"
 preserveAspectRatio="xMidYMid meet">
<metadata>
Created by potrace 1.11, written by Peter Selinger 2001-2013
</metadata>
<g transform="translate(0.000000,1023.000000) scale(0.100000,-0.100000)"
fill="#000000" stroke="none">
<path d="M4838 10225 c-1 -1 -49 -6 -106 -10 -57 -3 -113 -8 -125 -10 -12 -2
-47 -6 -77 -9 -30 -4 -64 -8 -76 -10 -12 -2 -45 -7 -75 -11 -30 -3 -121 -20
-204 -36 -82 -17 -159 -32 -170 -35 -65 -13 -365 -101 -478 -140 -1800 -625
-3130 -2244 -3396 -4134 -29 -207 -29 -212 -38 -345 -10 -151 -10 -640 0 -760
8 -84 18 -182 33 -300 8 -67 69 -393 89 -475 8 -36 17 -73 20 -84 2 -10 12
-44 21 -75 9 -31 17 -60 18 -66 12 -53 72 -239 119 -368 186 -505 484 -1034
811 -1437 155 -191 235 -280 401 -445 378 -378 805 -691 1265 -927 129 -66
185 -92 335 -159 170 -75 506 -189 688 -235 9 -2 25 -6 35 -8 64 -16 243 -56
272 -61 19 -3 58 -10 85 -15 53 -10 88 -15 170 -25 28 -4 77 -10 110 -15 219
-32 846 -35 1037 -5 13 2 55 7 93 11 39 4 72 8 75 9 6 1 92 15 140 21 19 3 53
9 75 14 22 5 56 12 75 15 342 59 852 235 1225 422 370 185 772 453 1055 703
725 638 1237 1401 1531 2280 63 190 139 463 153 554 4 21 8 41 10 45 2 3 7 28
10 55 4 27 9 52 10 55 2 3 7 28 10 55 4 27 9 52 11 55 3 5 15 96 20 156 3 26
15 131 20 172 24 178 24 785 1 923 -3 14 -7 57 -11 95 -5 63 -11 108 -30 240
-50 351 -184 816 -341 1190 -300 712 -754 1342 -1363 1889 -81 73 -296 242
-416 327 -619 439 -1335 736 -2055 854 -25 4 -52 9 -61 10 -9 2 -40 6 -70 10
-30 3 -61 8 -69 10 -8 2 -51 7 -95 10 -44 4 -93 9 -110 12 -35 5 -651 13 -657
8z m517 -169 c72 -4 144 -8 160 -10 17 -2 62 -7 100 -11 39 -4 77 -9 85 -10 8
-1 40 -6 70 -10 30 -4 64 -9 75 -11 10 -2 37 -6 59 -10 22 -3 43 -7 46 -9 3
-2 26 -6 50 -10 50 -7 396 -90 433 -104 17 -7 30 -27 46 -70 27 -75 68 -234
77 -299 3 -26 8 -56 11 -67 8 -41 4 -253 -7 -315 -54 -311 -242 -549 -559
-706 -366 -182 -891 -203 -1302 -53 -369 134 -609 367 -705 685 -24 80 -27
105 -28 254 -1 217 26 346 117 562 39 94 42 98 76 104 20 3 68 12 106 20 39 7
90 16 115 19 25 3 72 10 105 15 33 5 87 12 120 15 33 4 76 8 95 10 19 3 105 8
190 11 85 4 156 7 157 8 3 2 183 -3 308 -8z m-1473 -248 c-101 -307 -116 -558
-48 -818 27 -101 103 -251 175 -345 122 -159 264 -272 462 -369 152 -74 324
-131 454 -150 60 -9 97 -15 130 -22 50 -10 355 -12 433 -3 79 9 133 16 172 24
14 3 34 7 45 9 214 41 489 169 639 296 113 97 219 229 281 350 40 79 90 235
100 310 4 30 9 64 11 75 6 29 5 223 -1 270 -2 22 -7 60 -10 85 -6 43 -51 238
-62 266 -9 24 300 -102 527 -215 234 -117 331 -173 545 -314 105 -70 351 -249
365 -267 3 -3 19 -16 35 -29 41 -31 147 -124 224 -196 355 -330 660 -706 911
-1125 63 -104 226 -418 268 -515 11 -27 32 -75 45 -105 58 -132 194 -524 212
-613 2 -10 7 -27 10 -37 3 -10 7 -27 9 -37 2 -10 11 -45 19 -78 9 -33 18 -71
21 -85 3 -14 12 -61 21 -105 9 -44 23 -123 31 -175 20 -127 21 -136 29 -200 3
-30 8 -71 10 -90 33 -284 23 -867 -20 -1140 -27 -170 -37 -231 -55 -320 -27
-133 -26 -127 -40 -180 -7 -25 -14 -54 -16 -65 -16 -81 -13 -79 -100 -81 -178
-4 -315 -38 -468 -116 -119 -60 -214 -132 -313 -237 -141 -150 -272 -410 -297
-591 -3 -25 -8 -56 -11 -70 -10 -44 -7 -242 4 -310 27 -165 92 -326 183 -456
l35 -50 -50 -59 c-578 -694 -1357 -1229 -2202 -1513 -225 -76 -522 -150 -705
-177 -19 -3 -45 -8 -56 -10 -35 -8 -243 -33 -319 -40 -170 -13 -230 -16 -390
-16 -160 -1 -322 6 -425 16 -131 14 -200 22 -285 35 -149 23 -208 34 -394 76
-77 17 -359 98 -396 114 -11 5 -44 16 -72 25 -29 9 -53 19 -53 21 0 2 27 37
61 77 127 151 197 321 203 495 15 416 -344 827 -839 962 -108 30 -320 37 -420
14 -184 -42 -341 -149 -447 -301 -35 -52 -101 -190 -119 -250 -7 -24 -16 -43
-21 -43 -9 0 -305 293 -389 385 -372 411 -733 991 -928 1491 l-19 51 79 -23
c69 -20 154 -39 264 -59 81 -15 155 -19 315 -18 173 0 302 14 450 49 36 9 72
17 80 19 242 56 582 233 815 423 356 291 633 731 731 1157 10 44 19 82 19 85
1 3 5 28 10 55 4 28 9 59 11 70 10 55 18 214 17 330 -1 155 -9 227 -39 390
-30 165 -110 391 -200 565 -44 85 -160 269 -205 324 -13 16 -39 47 -57 70
-220 270 -563 514 -907 644 -141 53 -338 103 -465 117 -30 3 -73 8 -95 10 -51
6 -288 6 -340 0 -107 -11 -144 -16 -164 -20 -11 -2 -21 -2 -21 0 0 5 86 151
115 195 12 19 52 80 87 135 104 159 333 459 417 546 9 9 49 53 90 97 41 45 77
82 81 82 5 0 10 -11 14 -23 8 -35 97 -166 142 -211 60 -60 162 -122 239 -145
284 -86 643 57 864 345 17 21 35 44 41 51 5 7 10 15 10 19 0 3 8 18 19 32 28
42 71 157 85 232 38 198 -28 404 -174 547 -27 26 -50 51 -50 54 0 20 397 204
622 288 140 52 420 141 427 135 1 -1 -11 -45 -27 -96z m-1150 -445 c97 -79
157 -167 184 -273 83 -327 -296 -744 -676 -744 -176 0 -299 83 -394 264 -48
92 -48 101 0 146 62 58 167 151 200 176 16 13 35 28 42 35 68 66 577 423 602
423 5 0 23 -12 42 -27z m-1322 -1988 c106 -10 131 -14 227 -35 496 -107 957
-428 1246 -865 149 -226 260 -512 303 -780 18 -117 26 -403 14 -490 -5 -33
-12 -87 -15 -120 -4 -33 -9 -63 -11 -66 -2 -3 -6 -19 -8 -35 -10 -50 -14 -67
-40 -155 -147 -501 -512 -943 -986 -1196 -176 -93 -409 -175 -562 -198 -24 -4
-45 -8 -48 -10 -16 -10 -163 -19 -295 -20 -174 0 -263 8 -395 37 -97 21 -317
91 -331 105 -6 7 -73 212 -84 261 -3 9 -16 61 -29 114 -30 116 -72 315 -81
378 -3 25 -8 56 -10 70 -8 46 -14 84 -21 145 -3 33 -8 67 -9 76 -2 8 -6 60
-10 115 -4 54 -9 115 -11 134 -5 51 -5 508 0 555 2 22 7 80 11 129 4 49 8 96
10 105 1 9 6 46 9 83 4 37 9 77 11 90 41 243 62 352 91 466 19 75 37 147 40
159 12 60 113 356 169 498 49 122 167 390 178 402 2 1 127 26 192 38 17 3 77
8 135 12 58 3 106 7 107 8 5 3 135 -3 203 -10z m8330 -3735 c0 -5 -22 -71 -49
-147 -158 -450 -373 -863 -655 -1260 l-79 -112 -24 36 c-86 127 -142 307 -147
474 -5 166 30 321 106 474 92 185 233 334 408 433 69 39 219 89 291 98 30 3
55 7 56 8 8 7 93 4 93 -4z m-6965 -1795 c283 -26 603 -240 743 -497 117 -215
98 -469 -50 -662 -47 -62 -141 -156 -155 -156 -22 0 -393 178 -503 240 -160
92 -443 273 -510 327 -8 6 -60 47 -115 89 -55 43 -103 82 -107 88 -14 19 19
135 65 236 89 192 262 320 457 337 36 3 67 7 69 9 2 2 13 2 25 -1 12 -2 48 -7
81 -10z"/>
<path d="M7685 6849 c-229 -47 -422 -155 -605 -339 -115 -116 -191 -216 -276
-365 -168 -292 -292 -716 -330 -1125 -3 -36 -7 -78 -10 -95 -2 -16 -6 -127 -8
-245 -5 -222 4 -326 38 -460 121 -467 511 -813 1040 -921 211 -43 469 -45 672
-4 613 123 1031 545 1091 1103 13 115 4 532 -12 622 -2 8 -6 44 -10 80 -4 36
-9 74 -11 85 -2 11 -7 40 -10 65 -3 25 -10 65 -16 90 -5 25 -12 56 -14 70 -15
82 -73 283 -112 390 -179 490 -475 839 -839 989 -183 75 -404 98 -588 60z
m435 -184 c308 -99 555 -332 734 -692 77 -155 175 -432 200 -568 22 -118 47
-260 51 -300 4 -27 8 -61 10 -74 25 -152 26 -584 1 -701 -96 -459 -430 -765
-951 -871 -143 -29 -399 -31 -549 -5 -468 82 -824 368 -944 757 -11 36 -23 83
-27 105 -3 21 -10 62 -15 89 -9 48 -5 468 4 530 3 17 7 57 10 90 21 248 92
547 184 780 188 475 498 786 872 875 117 28 308 21 420 -15z"/>
<path d="M4998 6345 c-1 -1 -28 -6 -58 -9 -122 -14 -296 -81 -383 -147 -69
-52 -145 -139 -181 -209 -51 -97 -66 -164 -67 -286 0 -214 95 -398 276 -534
88 -66 161 -103 272 -137 78 -24 104 -27 233 -27 113 0 158 4 205 18 225 69
376 216 453 441 11 33 23 76 26 95 3 19 9 53 13 75 12 75 6 238 -11 295 -76
254 -325 414 -662 425 -61 2 -114 2 -116 0z m247 -179 c111 -25 221 -81 278
-141 82 -86 109 -168 102 -308 -13 -237 -117 -422 -285 -503 -297 -145 -719
12 -832 308 -113 299 65 570 422 643 65 13 257 13 315 1z"/>
<path d="M4965 3863 c-468 -59 -838 -291 -1059 -664 -91 -152 -175 -387 -200
-554 -20 -133 -24 -198 -21 -350 3 -170 24 -315 59 -410 69 -182 123 -283 216
-399 206 -260 577 -451 956 -493 86 -10 319 -9 399 1 337 44 646 188 853 399
85 85 95 98 155 184 99 142 181 369 203 563 9 71 9 339 1 381 -3 15 -8 53 -12
85 -18 149 -70 322 -145 479 -89 187 -194 321 -365 469 -39 34 -176 124 -241
159 -54 28 -214 92 -255 102 -170 38 -226 46 -364 49 -82 1 -163 1 -180 -1z
m354 -179 c646 -113 1059 -657 1046 -1379 -3 -158 -11 -220 -47 -339 -129
-437 -495 -728 -1004 -800 -113 -16 -368 -14 -454 4 -313 65 -515 165 -696
344 -129 129 -217 279 -269 457 -34 120 -40 170 -40 364 0 175 4 220 30 347
101 491 437 856 902 978 43 11 101 23 128 26 28 4 52 8 54 10 10 9 278 0 350
-12z"/>
</g>
</svg>
